<?xml version="1.0" standalone="no"?>
<svg xmlns:xlink="http://www.w3.org/1999/xlink" id="wave" style="transform:rotate(180deg); transition: 0.3s" viewBox="0 0 1440 490" version="1.1" xmlns="http://www.w3.org/2000/svg"><defs><linearGradient id="sw-gradient-0" x1="0" x2="0" y1="1" y2="0"><stop stop-color="rgba(0, 64.074, 255, 1)" offset="0%"/><stop stop-color="rgba(255, 255, 255, 1)" offset="100%"/></linearGradient></defs><path style="transform:translate(0, 0px); opacity:1" fill="url(#sw-gradient-0)" d="M0,147L48,138.8C96,131,192,114,288,138.8C384,163,480,229,576,277.7C672,327,768,359,864,318.5C960,278,1056,163,1152,163.3C1248,163,1344,278,1440,310.3C1536,343,1632,294,1728,294C1824,294,1920,343,2016,334.8C2112,327,2208,261,2304,228.7C2400,196,2496,196,2592,212.3C2688,229,2784,261,2880,228.7C2976,196,3072,98,3168,89.8C3264,82,3360,163,3456,212.3C3552,261,3648,278,3744,269.5C3840,261,3936,229,4032,179.7C4128,131,4224,65,4320,49C4416,33,4512,65,4608,89.8C4704,114,4800,131,4896,114.3C4992,98,5088,49,5184,98C5280,147,5376,294,5472,359.3C5568,425,5664,408,5760,392C5856,376,5952,359,6048,310.3C6144,261,6240,180,6336,187.8C6432,196,6528,294,6624,277.7C6720,261,6816,131,6864,65.3L6912,0L6912,490L6864,490C6816,490,6720,490,6624,490C6528,490,6432,490,6336,490C6240,490,6144,490,6048,490C5952,490,5856,490,5760,490C5664,490,5568,490,5472,490C5376,490,5280,490,5184,490C5088,490,4992,490,4896,490C4800,490,4704,490,4608,490C4512,490,4416,490,4320,490C4224,490,4128,490,4032,490C3936,490,3840,490,3744,490C3648,490,3552,490,3456,490C3360,490,3264,490,3168,490C3072,490,2976,490,2880,490C2784,490,2688,490,2592,490C2496,490,2400,490,2304,490C2208,490,2112,490,2016,490C1920,490,1824,490,1728,490C1632,490,1536,490,1440,490C1344,490,1248,490,1152,490C1056,490,960,490,864,490C768,490,672,490,576,490C480,490,384,490,288,490C192,490,96,490,48,490L0,490Z"/></svg>